<?xml version="1.0" encoding="UTF-8"?> <!-- Generator: Adobe Illustrator 24.3.0, SVG Export Plug-In . SVG Version: 6.00 Build 0) --> <svg xmlns="http://www.w3.org/2000/svg" xmlns:xlink="http://www.w3.org/1999/xlink" version="1.1" id="Layer_1" x="0px" y="0px" viewBox="0 0 1766 725" style="enable-background:new 0 0 1766 725;" xml:space="preserve"> <style type="text/css"> .st0{fill:#00349B;} </style> <g> <path class="st0" d="M495,22.1c42.1,0,84.2,0.1,126.3-0.1c4.3,0,4.7,1.2,4.7,5c-0.1,135-0.1,270-0.1,405c-41.3,0-82.7,0-124,0 c-1.7,0-3.7-0.9-5.1,0.8c-4.2,0.1-2.6-3.1-2.6-5c-0.1-44.5-0.1-88.9,0-133.4c0-4.2-0.8-5.7-5.4-5.7c-38.8,0.2-77.6,0.2-116.4,0 c-4.3,0-5.6,1-5.6,5.5c0.2,44.5,0,88.9,0.2,133.4c0,4.2-1.1,5.2-5.3,5.2c-41-0.2-81.9-0.2-122.9,0c-4.7,0-5.7-1.4-5.7-5.8 c0.1-46.3,0.1-92.6,0.1-138.9c1.7-1.7,0.8-3.8,0.8-5.6c0.1-86.8,0-173.6,0-260.4c44,0,88,0,132,0c0,42.6,0.1,85.3-0.1,127.9 c0,4.1,0.9,5.2,5.1,5.2c39.6-0.2,79.3-0.2,118.9,0c4.2,0,5.1-1,5.1-5.2C494.9,107.4,495,64.8,495,22.1z"></path> <path d="M233.2,288.2c0,46.3,0.1,92.6-0.1,138.9c0,4.4,0.9,5.9,5.7,5.8c41-0.2,81.9-0.2,122.9,0c4.1,0,5.3-1,5.3-5.2 c-0.2-44.5,0-88.9-0.2-133.4c0-4.5,1.3-5.5,5.6-5.5c38.8,0.2,77.6,0.2,116.4,0c4.6,0,5.4,1.4,5.4,5.7c-0.1,44.5-0.1,88.9,0,133.4 c0,1.9-1.6,5.1,2.6,5c0.1,1.8,0.1,3.7,0.1,5.5c0,86.5,0,173,0,259.5c-43.7,0-87.3,0-131,0c0-46.5,0-93,0.1-139.4 c0-3.7-0.9-4.6-4.6-4.6c-39.8,0.2-79.6,0.2-119.4,0c-4.2,0-5.1,1-5.1,5.1c0.2,46.3,0.1,92.6,0.1,138.9c-42.4,0-84.9-0.1-127.3,0.1 c-4.3,0-4.7-1.2-4.7-5c0.1-135,0.1-270,0.1-405C147.8,288.1,190.5,288.1,233.2,288.2z"></path> </g> <g> <path d="M618,700c-5.5-1.1-11.1-2-16.5-3.5c-39.7-10.6-66.2-45.1-66.6-86.8c-0.5-46,27.4-82.9,71.5-92 c40.3-8.3,76.1,0.8,102.5,34.4c35.6,45.2,21.9,129.4-57.2,145.9c-3.5,0.7-7.1,1.4-10.7,2C633.3,700,625.7,700,618,700z M630.6,676 c40.1,0,70.1-29.5,70.1-69c0-38.3-30-67.9-68.9-68c-41.1-0.1-70.5,28.4-70.6,68.6C561.1,646.9,590.7,675.9,630.6,676z"></path> <path d="M1431,251c16.4,2.3,32,7.4,47.2,13.9c3.7,1.6,4.9,3.5,4.7,7.4c-0.3,6.6-0.1,13.2-0.1,20.6c-2.6-1.4-4.5-2.3-6.3-3.3 c-18.3-9.9-37.7-15.8-58.7-15.5c-37.2,0.4-67.2,30.1-67.9,67.4c-0.7,37.1,20.3,64,55.5,71.1c18.2,3.7,35.8,0,53-5.7 c1-0.3,2.2-2.1,2.2-3.2c0.2-11.6,0.1-23.3,0.1-35.5c-11.6,0-22.9,0-34.3,0c0-7.9,0-15.1,0-22.7c19.8,0,39.5,0,59.6,0 c0.1,1.2,0.2,2.3,0.2,3.4c0,23,0.1,46-0.1,69c0,1.7-1.1,4.5-2.5,5c-31.8,12.9-64.4,18.2-98,8.2c-39.6-11.8-65.3-49.8-62.3-91.3 c3.5-47.8,35-81.4,82.4-87.9c0.8-0.1,1.5-0.6,2.3-0.8C1415.7,251,1423.3,251,1431,251z"></path> <path d="M1414,700c-6.5-1.3-13.1-2.2-19.5-3.9c-42.9-11.4-69.2-50.7-66.1-94.8c3.3-47.3,44.4-92.1,107.8-85.8 c17.2,1.7,33,7.5,48.6,14.4c1.4,0.6,3,2.7,3,4.2c0.3,7.3,0.1,14.6,0.1,22.7c-2.4-1.2-4.3-2-6.1-3c-18.5-10-38-15.9-59.2-15.7 c-36.9,0.4-66.4,30.2-67.8,67.1c-1.7,46.8,35.6,78,81.2,72.1c8.8-1.2,17.5-3.8,26.2-6c1.4-0.4,3.4-2.1,3.4-3.2 c0.3-11.8,0.2-23.6,0.2-35.8c-11.7,0-22.8,0-34.2,0c0-7.8,0-15.2,0-23.1c9.9,0,19.7,0,29.4,0c9.8,0,19.6,0,29.9,0 c0.1,1.6,0.4,3,0.4,4.5c0,22.7-0.1,45.3,0.1,68c0,3.4-1,5-4.1,6.2c-14.8,5.7-30,10-45.8,11.5c-1.1,0.1-2.2,0.5-3.4,0.8 C1430,700,1422,700,1414,700z"></path> <path d="M1628,433c-34.5,0-68.9,0-103.8,0c0-59.6,0-118.9,0-178.6c33.3,0,66.7,0,100.4,0c0,7.2,0,14.6,0,22.5c-24.8,0-49.7,0-75,0 c0,18.2,0,35.9,0,54.1c24.2,0,48.3,0,72.6,0c0,7.9,0,15.3,0,23.1c-24.3,0-48.2,0-72.6,0c0,18.7,0,37.1,0,56c26.2,0,52.3,0,78.4,0 C1628,417.7,1628,425.3,1628,433z"></path> <path d="M1167.9,696.8c-8.6,0-16.2,0-24.2,0c0-59.6,0-119,0-178.8c6.5,0,12.6-0.2,18.7,0.1c1.6,0.1,3.4,1.8,4.6,3.2 c37.8,43.5,75.6,87.1,113.3,130.6c1.1,1.2,2.2,2.4,4.2,4.6c0-46.7,0-92.3,0-138.2c8.4,0,16.2,0,24.2,0c0,59.4,0,118.7,0,178.7 c-6.8,0-13.7,0.2-20.6-0.2c-1.4-0.1-2.9-1.9-4.1-3.2c-31.7-36.5-63.3-73-95-109.5c-6.7-7.8-13.5-15.6-21.2-24.4 C1167.9,606.1,1167.9,651.2,1167.9,696.8z"></path> <path d="M888.3,517.7c31.4,1.6,62.7-2.5,93.6,3.2c40,7.4,69,41.4,70.1,82.1c1.3,46.6-29,84.1-75,92.5c-3.1,0.6-6.3,0.8-9.4,0.9 c-26.3,0.1-52.6,0-79.3,0C888.3,637.4,888.3,578,888.3,517.7z M914.1,540.2c0,45.5,0,89.5,0,134.4c18.2-0.6,36-0.6,53.8-1.8 c10.7-0.7,20.9-4.3,29.8-10.5c17.4-12.2,26-29.2,27.8-50.1c3-33.3-18.2-63.5-51.2-68.7C954.7,540.2,934.5,541.1,914.1,540.2z"></path> <path d="M883.5,348c15.3,10.8,24.4,26,34.1,40.8c9,13.8,18.3,27.4,27.4,41.1c0.5,0.8,1,1.6,2,3.1c-10,0-19.2,0.1-28.5-0.1 c-1.3,0-3-1.8-3.9-3.2c-8.9-13.7-17.4-27.6-26.5-41.1c-4.9-7.3-10.6-14.1-16.3-20.8c-9.5-11.3-21.9-14.3-36.6-12.3 c0,25.6,0,51.3,0,77.2c-8.8,0-17,0-25.6,0c0-59.5,0-118.7,0-177.9c0.4-0.3,0.6-0.6,0.9-0.6c20.9,0.4,42.1-2.6,62.8,1.9 c37.2,8,45.5,40,36.8,65.3C906.2,333,899.5,339.4,883.5,348z M835.2,332.8c11.3-1,22.3-1.3,33-3.3c10.6-2,17.4-11.9,18.4-24 c0.9-10.9-4.8-21.6-14.5-25.6c-11.8-4.9-24.3-4-36.9-3.7C835.2,294.9,835.2,313,835.2,332.8z"></path> <path d="M1320.7,433c-8.5,0-16,0.2-23.5-0.2c-1.5-0.1-3.6-2-4.3-3.5c-6.8-14.6-13.3-29.4-19.9-44.1c-0.7-1.7-1.5-3.3-2.4-5.2 c-24.5,0-49-0.1-73.5,0.2c-1.4,0-3.4,2.2-4.1,3.8c-6.4,14.8-12.7,29.7-18.8,44.6c-1.3,3.2-2.7,4.7-6.4,4.5c-7-0.4-14-0.1-21.5-0.1 c0.7-2.1,1.2-3.7,1.9-5.3c24.2-56.8,48.4-113.5,72.5-170.4c1.4-3.2,2.8-4.7,6.5-4.4c4.5,0.4,9,0.1,13.7,0.1 C1267.4,312.8,1293.9,372.5,1320.7,433z M1260.2,356.9c-9.7-21.7-19-42.7-28.8-64.5c-9,22-17.7,43.1-26.6,64.5 C1223.6,356.9,1241.5,356.9,1260.2,356.9z"></path> <path d="M678,432.8c0-59.7,0-118.9,0-178.5c33.6,0,67,0,100.7,0c0,7.4,0,14.8,0,22.7c-25.1,0-50,0-75.2,0c0,18.1,0,35.7,0,53.8 c24.2,0,48.2,0,72.6,0c0,7.9,0,15.3,0,23.3c-24.3,0-48.3,0-72.7,0c0,18.8,0,37,0,55.8c25.9,0,51.7,0,77.7,0c0,7.9,0,15.3,0,23 C746.8,432.8,712.7,432.8,678,432.8z"></path> <path d="M1166.6,254.4c0,7.4,0,14.7,0,22.5c-20.4,0-40.8,0-61.9,0c0,52.2,0,103.9,0,155.9c-8.9,0-17.1,0-25.8,0 c0-51.7,0-103.3,0-155.5c-20.6,0-40.8,0-61.3,0c0-8,0-15.2,0-22.8C1067.3,254.4,1116.8,254.4,1166.6,254.4z"></path> <path d="M759.1,518.3c8.2,0,16.3,0,25,0c0,51.8,0,103.4,0,155.7c27.1,0,53.7,0,80.5,0c0,7.8,0,15.1,0,22.7c-35.1,0-70.1,0-105.5,0 C759.1,637.3,759.1,577.9,759.1,518.3z"></path> <path d="M993.3,254.3c0,59.5,0,118.7,0,178.4c-8.3,0-16.5,0-25.1,0c0-59.3,0-118.7,0-178.4C976.6,254.3,984.8,254.3,993.3,254.3z"></path> <path d="M1103.2,696.8c-8.5,0-16.6,0-25,0c0-59.5,0-118.7,0-178.4c8.2,0,16.4,0,25,0C1103.2,577.7,1103.2,637,1103.2,696.8z"></path> </g> </svg> 